Coordinates
version=1
nRows=17
nColumns=24
inDegrees=yes

Units are S.I. units (second, meters, Newtons, ...)
Angles are in degrees.

endheader
time	pelvis_tilt	pelvis_list	pelvis_rotation	pelvis_tx	pelvis_ty	pelvis_tz	hip_flexion_r	hip_adduction_r	hip_rotation_r	knee_angle_r	ankle_angle_r	subtalar_angle_r	mtp_angle_r	hip_flexion_l	hip_adduction_l	hip_rotation_l	knee_angle_l	ankle_angle_l	subtalar_angle_l	mtp_angle_l	lumbar_extension	lumbar_bending	lumbar_rotation
      1.00800000	     -3.85462540	     -4.16042817	     -3.73656548	     -0.10504583	      1.01124156	      0.31116165	     -5.05882379	      8.75646524	      4.18036976	    -12.88065543	     16.22661968	     -2.93488603	      3.93561392	     24.04793842	     -4.28143310	     -4.35039867	      3.96940174	      4.15929048	     -1.37040578	     -1.70299416	     -4.26957857	      2.36896379	      8.62425593
      1.01216667	     -3.73749441	     -4.01210354	     -3.76448497	     -0.09933455	      1.01059849	      0.31084949	     -5.28452124	      8.56420560	      4.14389925	    -13.38359067	     16.53196137	     -2.85889621	      3.85333031	     24.03017715	     -4.06090198	     -4.30760539	      3.34919142	      4.09044212	     -1.45039524	     -1.54100479	     -4.35911992	      2.16684129	      8.64801269
      1.01633333	     -3.65609153	     -3.85980196	     -3.78417790	     -0.09360590	      1.00991683	      0.31053797	     -5.45299846	      8.37623703	      4.11226380	    -13.92405031	     16.80764997	     -2.82362599	      3.77950628	     24.06195022	     -3.83743526	     -4.25841334	      2.67167938	      3.98127067	     -1.56780824	     -1.36754059	     -4.39295726	      1.95552662	      8.65657886
      1.02050000	     -3.52398602	     -3.70253681	     -3.80007214	     -0.08788192	      1.00932707	      0.31018357	     -5.63212660	      8.16906169	      3.98382723	    -14.55109821	     17.09705415	     -2.63890218	      3.62868591	     24.03442050	     -3.60350813	     -4.21736461	      1.98090404	      3.78511895	     -1.75255861	     -0.96596875	     -4.50700367	      1.76998979	      8.66681748
      1.02466667	     -3.43560404	     -3.54268810	     -3.78441223	     -0.08211922	      1.00869210	      0.30983993	     -5.78797567	      7.99023050	      3.99975383	    -15.12372300	     17.21356477	     -2.82773166	      3.61045567	     24.07658013	     -3.36411650	     -4.15568719	      1.21739669	      3.63880861	     -1.87781460	     -0.90547802	     -4.55372237	      1.56310639	      8.66913960
      1.02883333	     -3.32858232	     -3.37190016	     -3.77573443	     -0.07633644	      1.00812734	      0.30950248	     -5.93735891	      7.79839594	      4.00614717	    -15.75007700	     17.32808089	     -2.96794923	      3.59464429	     24.09225332	     -3.11658290	     -4.11904173	      0.44408777	      3.42222789	     -2.04388531	     -0.83699925	     -4.61669193	      1.33765306	      8.66518498
      1.03300000	     -3.20294384	     -3.18058060	     -3.76520589	     -0.07052632	      1.00758557	      0.30912720	     -6.05079799	      7.56417161	      3.86549981	    -16.50104280	     17.60060194	     -2.73643103	      3.50623891	     24.04369550	     -2.83744704	     -3.91774684	     -0.24254431	      2.95107693	     -2.62293170	     -0.35386874	     -4.68275738	      1.07011443	      8.63106237
      1.03716667	     -3.08330310	     -2.99490527	     -3.70375940	     -0.06468236	      1.00707089	      0.30871839	     -6.17406223	      7.36227675	      3.79839607	    -17.20668190	     17.67719261	     -2.85980267	      3.32765783	     24.01476715	     -2.54769882	     -3.62751700	     -0.96524101	      2.51570804	     -3.21661482	      0.89348018	     -4.73852565	      0.80334669	      8.59951032
      1.04133333	     -2.97922201	     -2.79499557	     -3.68739728	     -0.05885619	      1.00657877	      0.30832405	     -6.21850105	      7.13089183	      3.69748280	    -18.03974852	     17.79069316	     -2.80686202	      3.25761193	     24.02218794	     -2.26881090	     -3.57726016	     -1.74399738	      2.10303326	     -3.50745675	      2.39529523	     -4.78893962	      0.53671247	      8.58384667
      1.04550000	     -2.86631906	     -2.59222074	     -3.66554952	     -0.05299684	      1.00615902	      0.30797467	     -6.28602144	      6.92052150	      3.73293609	    -18.83480306	     17.69211429	     -3.06920413	      3.26448653	     24.02233254	     -1.99363303	     -3.56261915	     -2.54276259	      1.72876787	     -3.70169610	      2.47119852	     -4.84796264	      0.25481004	      8.55746904
      1.04966667	     -2.77089504	     -2.39628158	     -3.62512533	     -0.04715568	      1.00572828	      0.30753184	     -6.27480646	      6.70355733	      3.63147665	    -19.74798553	     17.64698304	     -3.14780405	      3.32753496	     24.01228188	     -1.70439587	     -3.32787549	     -3.27699387	      1.20717114	     -4.30044227	      2.66266904	     -4.88569719	      0.01470929	      8.50203131
      1.05383333	     -2.65392355	     -2.17931210	     -3.57777675	     -0.04128709	      1.00537721	      0.30707789	     -6.26221223	      6.46231884	      3.51831836	    -20.70412788	     17.54590187	     -3.22889957	      3.42955077	     23.97892440	     -1.39435370	     -3.13854059	     -4.01951340	      0.71760962	     -4.78897372	      2.85107475	     -4.94468674	     -0.27328011	      8.45332103
      1.05800000	     -2.53161431	     -1.96081418	     -3.52025856	     -0.03539793	      1.00507791	      0.30662859	     -6.23059477	      6.22327127	      3.38885167	    -21.69890748	     17.33498562	     -3.39588871	      3.46791512	     23.96115914	     -1.09216503	     -3.06711555	     -4.82082657	      0.38568535	     -5.00228419	      2.90139910	     -4.98679637	     -0.58384952	      8.43085668
      1.06216667	     -2.46935283	     -1.73272618	     -3.46881599	     -0.02954925	      1.00473542	      0.30610224	     -6.07312454	      5.95973284	      3.20558092	    -22.81292389	     17.18761373	     -3.33798937	      3.66834990	     23.96657060	     -0.76255443	     -2.74860956	     -5.52810490	     -0.19237444	     -5.71904694	      3.07557930	     -5.00420435	     -0.85084488	      8.33612295
      1.06633333	     -2.37040949	     -1.49690291	     -3.41181556	     -0.02367406	      1.00449578	      0.30558061	     -5.93339918	      5.68650062	      3.01520913	    -23.95604760	     16.91021633	     -3.37746962	      3.91789394	     23.94198411	     -0.43357168	     -2.55344961	     -6.26892592	     -0.63803862	     -6.17906462	      3.23556618	     -5.04443185	     -1.15965804	      8.26128829
      1.07050000	     -2.27471931	     -1.25390262	     -3.35131028	     -0.01779934	      1.00430134	      0.30503104	     -5.75208445	      5.39578848	      2.78448019	    -25.16242545	     16.57276842	     -3.37892975	      4.23582961	     23.91854714	     -0.09789922	     -2.36746005	     -7.01345152	     -1.01991827	     -6.59337770	      3.38242427	     -5.08056306	     -1.46984267	      8.18370757
      1.07466667	     -2.17454502	     -1.01630418	     -3.28581312	     -0.01192204	      1.00416364	      0.30446380	     -5.55185860	      5.10871235	      2.55572354	    -26.38904511	     16.00087656	     -3.53506601	      7.58868123	     23.88563047	      0.23134853	     -2.18678729	     -7.75864237	     -1.32567966	     -6.96325774	      4.45618378	     -5.12606580	     -1.77178158	      8.13733345
